<?xml version="1.0" encoding="UTF-8" standalone="no"?>
<svg width="132px" height="35px" viewBox="0 0 132 35" version="1.1" xmlns="http://www.w3.org/2000/svg" xmlns:xlink="http://www.w3.org/1999/xlink">
    <!-- Generator: Sketch 46.2 (44496) - http://www.bohemiancoding.com/sketch -->
    <title>Page 1@1x</title>
    <desc>Created with Sketch.</desc>
    <defs>
        <polygon id="path-1" points="0 34.8090713 131.723766 34.8090713 131.723766 -0.000141489362 0 -0.000141489362"></polygon>
    </defs>
    <g id="首页" stroke="none" stroke-width="1" fill="none" fill-rule="evenodd">
        <g id="Desktop-HD" transform="translate(-23.000000, -105.000000)">
            <g id="Page-1" transform="translate(23.000000, 105.000000)">
                <path d="M122.965574,10.286984 L122.908979,10.3294309 C122.950011,10.5388351 123.092915,10.7142819 123.291,10.7963457 C123.527287,10.9491543 123.803191,11.0269734 124.08334,11.0227287 C124.613926,10.8883138 125.100649,10.6208989 125.498234,10.2445372 C125.110553,9.86817553 124.616755,9.62198404 124.08334,9.53709043 C123.803191,9.53284574 123.527287,9.61066489 123.291,9.7634734 C123.101404,9.87242021 122.979723,10.0690904 122.965574,10.286984 Z M125.795362,3.21251596 L125.795362,3.17006915 L125.441638,3.84921809 L129.799511,3.84921809 C129.979202,3.87185638 130.154649,3.91713298 130.323021,3.98646277 C131.378532,4.41659043 131.886479,5.62207979 131.454936,6.67900532 L129.261851,10.4992181 L131.723766,13.3290053 L127.946,13.3290053 L127.167809,12.4517713 L125.965149,13.1309202 C124.991702,13.3926755 123.972979,13.4407819 122.979723,13.2724096 C122.188798,13.0828138 121.477106,12.6526862 120.942277,12.0414521 C120.178234,10.8218138 120.30416,9.24562234 121.253553,8.16464362 C122.572234,6.97613298 124.49083,6.73277128 126.064191,7.55623936 L126.998021,8.30613298 L128.115787,6.35357979 L123.503234,6.35357979 C122.633074,6.88557979 121.673777,7.2591117 120.673447,7.45719681 L120.673447,4.62740957 C121.43183,4.32462234 122.102489,3.83931383 122.626,3.21251596 L125.795362,3.21251596 Z M116.428766,15.7201755 L119.626426,10.5841117 L119.626426,8.22123936 L116.527809,8.22123936 L119.470787,3.2691117 L115.763766,3.2691117 L112.820787,7.83921809 C112.075138,9.62198404 112.59016,10.6449521 114.363021,10.9095372 L115.919404,10.9095372 L112.721745,15.7201755 C112.325574,17.4279521 112.943883,18.3235798 114.575255,18.4084734 L119.56983,18.4084734 L119.56983,15.7201755 L116.428766,15.7201755 Z M118.353021,22.3277287 C119.400043,22.3277287 119.923553,21.8565691 119.923553,20.9128351 L119.923553,19.4979415 L112.849085,19.4979415 L112.849085,22.3277287 L118.353021,22.3277287 Z M126.616,16.6681543 L123.885255,16.6823032 L123.885255,19.9224096 L127.832809,19.9224096 L127.832809,17.9981543 C127.832809,17.111016 127.426734,16.6681543 126.616,16.6681543 Z M131.186106,16.4700691 L131.299298,16.4700691 L131.299298,22.3984734 L120.574404,22.3984734 L120.574404,16.286133 C120.556011,14.7481436 121.437489,13.9798564 123.220255,13.9798564 L128.87983,13.9798564 C130.417819,13.9798564 131.186106,14.8103989 131.186106,16.4700691 Z M104.953979,18.6914521 L104.982277,18.7621968 L104.982277,8.09389894 L103.142915,14.3335798 L104.953979,18.6914521 Z M94.922383,6.80634574 L94.908234,6.80634574 L96.0542979,9.80592021 L96.9315319,6.80634574 L100.723447,6.80634574 L101.827064,10.2586862 L102.930681,6.80634574 L104.996426,6.80634574 C104.996426,6.27859043 104.525266,6.01400532 103.581532,6.01400532 L92.9981277,6.01400532 L92.9981277,6.80634574 L94.922383,6.80634574 Z M94.922383,13.8808138 L92.9981277,8.34857979 L92.9981277,18.5641117 L94.922383,13.8808138 Z M100.652702,14.1637926 L100.709298,14.1637926 L98.9406809,8.63155851 L97.5257872,13.5412394 L98.8557872,16.8662394 C98.9378511,17.0586649 99.1161277,17.1916649 99.3227021,17.2199628 C99.5490851,17.1647819 99.737266,17.0077287 99.8320638,16.7954947 L100.652702,14.1637926 Z M108.293128,20.502516 L108.250681,20.5449628 C108.26483,20.6850372 108.263415,20.8265266 108.245021,20.9666011 C108.114851,21.9343883 107.223468,22.6135372 106.255681,22.483367 L105.038872,22.483367 L105.038872,19.8516649 L102.605255,19.8516649 L102.011,18.4367713 L102.011,18.6773032 C101.586532,19.5318989 100.662606,20.0157926 99.7188723,19.8799628 L98.7850426,19.8799628 C97.7832979,19.98325 96.850883,19.3592819 96.5636596,18.3943245 L96.2806809,17.7434734 L95.5024894,19.8092181 L93.0688723,19.8092181 L93.0688723,22.4409202 L89.7863191,22.4409202 L89.7863191,6.25453723 C89.762266,6.05503723 89.762266,5.85270745 89.7863191,5.65320745 C89.9518617,4.25670745 91.2196064,3.25920745 92.6161064,3.42475 L105.647277,3.42475 C107.411649,3.42475 108.293128,4.36848404 108.293128,6.25453723 L108.293128,20.502516 Z M77.5333404,13.7534734 L80.957383,20.1204947 L77.4767447,20.1204947 L75.6656809,16.8945372 L74.2507872,19.2998564 C74.0569468,19.7724309 73.5688085,20.0568245 73.0622766,19.9931543 L70.0627021,19.9931543 L73.7272766,13.838367 L70.2890851,7.1034734 L73.7131277,7.1034734 L75.6656809,10.6124096 L77.4625957,7.1034734 L80.8866383,7.1034734 L77.5333404,13.7534734 Z M84.4380213,19.2574096 L84.4804681,19.2715585 C84.4804681,19.5828351 84.6502553,19.7526223 84.9898298,19.7526223 L85.7680213,19.7526223 L85.7680213,22.4409202 L83.1221702,22.4409202 C82.9608723,22.4649734 82.7967447,22.4663883 82.6354468,22.4451649 C81.6818085,22.3164096 81.0139787,21.4405904 81.1413191,20.488367 L81.1413191,7.18836702 C81.1582979,7.08225 81.1597128,6.97471809 81.1469787,6.86860106 C81.0677447,6.24746277 80.5017872,5.80884574 79.8820638,5.88666489 L69.9778085,5.88666489 L69.9778085,20.7288989 C69.9594149,21.899016 69.3170532,22.4550691 68.0535532,22.3984734 L66.6386596,22.3984734 L66.6386596,6.16964362 C66.606117,5.95457979 66.6004574,5.73527128 66.6216809,5.51879255 C66.7631702,4.08833511 68.0379894,3.04272872 69.4684468,3.18421809 L81.608234,3.18421809 C83.4942872,3.18421809 84.4380213,4.19303723 84.4380213,6.21209043 L84.4380213,19.2574096 Z M49.6599362,8.54666489 L46.363234,8.53251596 L45.5850426,9.14092021 L48.8958936,9.14092021 C49.5467447,9.14092021 49.8721702,9.50879255 49.8721702,10.2303883 L49.8721702,12.4093245 L44.4955745,12.4093245 L44.4955745,10.3435798 C44.4955745,9.66443085 44.6795106,9.29655851 45.047383,9.29655851 L43.6324894,9.66443085 L43.6324894,7.68357979 C44.2592872,7.46427128 44.7700638,7.00018617 45.047383,6.3960266 L47.3395106,6.3960266 L47.254617,6.82049468 L51.3719574,6.82049468 C52.7302553,6.82049468 53.4518511,7.47134574 53.4518511,8.74475 L53.4518511,12.4517713 L50.353234,12.4517713 L50.353234,9.29655851 C50.353234,8.80134574 50.1268511,8.54666489 49.6599362,8.54666489 Z M54.131,5.0660266 L54.0036596,5.5753883 L52.2916383,5.5753883 L52.2916383,5.99985638 L49.1505745,5.99985638 L49.1505745,5.5753883 L48.2450426,5.5753883 L48.2450426,5.99985638 L45.1039787,5.99985638 L45.1039787,5.5753883 L43.6890851,5.5753883 L43.6890851,3.72187766 L45.1039787,3.72187766 L45.1039787,3.18421809 L48.2450426,3.18421809 L48.2450426,3.72187766 L49.2213191,3.72187766 L49.2213191,3.18421809 L52.362383,3.18421809 L52.362383,3.72187766 L54.2017447,3.72187766 L54.2017447,5.0660266 L54.131,5.0660266 Z M61.5450426,4.04730319 L61.5591915,4.04730319 C61.6242766,4.07843085 61.6879468,4.11521809 61.7487872,4.15483511 C62.4435,4.61892021 62.6316809,5.55840957 62.1675957,6.25453723 L60.0877021,9.35315426 L62.8184468,12.6357074 L59.677383,12.6357074 L58.5171702,11.2208138 L57.8804681,12.1404947 C57.4984468,12.4885585 56.9749362,12.641367 56.4655745,12.5508138 L54.1168511,12.5508138 L56.6070638,9.2541117 L55.3053617,7.45719681 L58.1351489,7.45719681 L58.9133404,6.25453723 L57.1164255,6.25453723 L56.8334468,6.86294149 C56.4528404,7.12328191 55.980266,7.21100532 55.5317447,7.1034734 L53.904617,7.1034734 L55.4468511,3.18421809 L58.3756809,3.18421809 L58.0078085,4.04730319 L61.5450426,4.04730319 Z M47.3961064,10.513367 L46.5047234,10.513367 L46.5047234,11.1076223 L47.919617,11.1076223 L47.919617,10.966133 C47.919617,10.6690053 47.7498298,10.513367 47.3961064,10.513367 Z M43.8447234,13.0601755 L43.8447234,15.0127287 L50.7352553,15.0127287 C51.3578085,15.0127287 51.6690851,15.2249628 51.6690851,15.6494309 L51.6690851,15.8616649 L44.1418511,15.8616649 L44.1418511,17.5736862 L50.9191915,17.5736862 C51.4568511,17.5736862 51.7398298,17.7717713 51.7398298,18.1679415 L51.7398298,18.3943245 L43.5758936,18.3943245 L43.5758936,20.2478351 L51.7398298,20.2478351 L51.7398298,20.5166649 C51.7398298,20.6539096 51.6945532,20.7883245 51.6124894,20.8986862 C51.4908085,21.0161223 51.3280957,21.0769628 51.1597234,21.0684734 L48.7544043,21.0684734 L48.7544043,22.483367 L53.4942979,22.483367 C53.9498936,22.4861968 54.384266,22.2909415 54.6828085,21.9457074 C54.941734,21.658484 55.0874681,21.286367 55.0931277,20.8986862 L55.0931277,20.261984 L62.8042979,20.261984 L62.8042979,18.4084734 L55.0931277,18.4084734 L55.0931277,17.5878351 L62.3939787,17.5878351 L62.3939787,15.8758138 L55.1780213,15.8758138 L55.1780213,15.0410266 L60.8375957,15.0410266 C61.9228191,15.0410266 62.4647234,14.3944202 62.4647234,13.1026223 L43.8447234,13.0601755 Z" id="Fill-1" fill="#FFFFFF"></path>
                <mask id="mask-2" fill="white">
                    <use xlink:href="#path-1"></use>
                </mask>
                <g id="Clip-4"></g>
                <path d="M127.111213,30.3365926 L128.129936,30.3365926 L128.129936,25.8230819 L127.111213,25.8230819 L127.111213,30.3365926 Z M131.412489,25.8230819 L129.360894,28.0444649 L131.341745,30.3365926 L129.926851,30.3365926 L128.172383,28.0444649 L129.997596,25.8230819 L131.412489,25.8230819 Z M124.88983,27.2379755 C124.895489,27.0469649 124.804936,26.8658585 124.649298,26.7569117 C124.455457,26.633816 124.22766,26.5743904 123.998447,26.5871245 L122.583553,26.5871245 L122.583553,27.8463798 L123.998447,27.8463798 C124.190872,27.8463798 124.381883,27.7982734 124.550255,27.7048904 C124.729947,27.6185819 124.845968,27.4374755 124.847383,27.2379755 L124.88983,27.2379755 Z M126.304723,30.3365926 L125.003021,30.3365926 L123.800362,28.5821245 L122.555255,28.5821245 L122.555255,30.3365926 L121.465787,30.3365926 L121.465787,25.8230819 L124.847383,25.8230819 C125.21384,25.8174223 125.563319,25.9787202 125.795362,26.2616989 C126.047213,26.5446777 126.184457,26.9139649 126.177383,27.2945713 C126.184457,27.5959436 126.065606,27.8874117 125.851957,28.1010606 C125.631234,28.3246138 125.342596,28.468933 125.031319,28.5113798 L126.304723,30.3507415 L126.304723,30.3365926 Z M119.230255,28.0444649 C119.250064,27.6624436 119.135457,27.2874968 118.90483,26.9832947 C118.63317,26.6776777 118.237,26.5163798 117.829511,26.5446777 C117.420606,26.5149649 117.023021,26.6904117 116.76834,27.0115926 C116.560351,27.3087202 116.455649,27.6666883 116.471213,28.030316 C116.445745,28.4038479 116.529223,28.7773798 116.711745,29.1056351 C117.014532,29.4551138 117.468713,29.6348053 117.928553,29.5866989 C118.340287,29.6305606 118.744947,29.4536989 118.989723,29.119784 C119.17083,28.7858691 119.252894,28.4080926 119.230255,28.030316 L119.230255,28.0444649 Z M120.404617,28.0444649 C120.471117,28.7547415 120.192383,29.4551138 119.654723,29.9262734 C119.129798,30.2630181 118.50866,30.4214862 117.886106,30.3790394 C117.211202,30.43705 116.539128,30.250284 115.990149,29.8555287 C115.496351,29.3645606 115.24733,28.6797521 115.311,27.9878691 C115.272798,27.3822947 115.487862,26.7880394 115.905255,26.3465926 C116.445745,25.8839223 117.148947,25.6547096 117.857809,25.7098904 C118.586479,25.6306564 119.316564,25.8499649 119.881106,26.3182947 C120.263128,26.8021883 120.445649,27.4148372 120.390468,28.030316 L120.404617,28.0444649 Z M114.943128,25.808933 L113.344298,30.3365926 L111.929404,30.3365926 L110.910681,27.138933 L109.920255,30.3365926 L108.505362,30.3365926 L106.920681,25.808933 L108.179936,25.808933 L109.212809,29.1905287 L110.231532,25.808933 L111.547383,25.808933 L112.636851,29.2329755 L113.627277,25.808933 L114.943128,25.808933 Z M106.708447,26.5871245 L104.982277,26.5871245 L104.982277,30.3365926 L103.921106,30.3365926 L103.921106,26.5871245 L102.223234,26.5871245 L102.223234,25.8230819 L106.708447,25.8230819 L106.708447,26.5871245 Z M101.501638,30.3224436 L99.1812128,30.3224436 C98.8331489,30.3238585 98.4893298,30.2460394 98.1766383,30.0960606 C97.8285745,29.9248585 97.5484255,29.6404649 97.3842979,29.2895713 C97.2017766,28.9146245 97.1098085,28.5028904 97.1154681,28.0869117 C97.1112234,27.6794223 97.2046064,27.2775926 97.3842979,26.91255 C97.5555,26.5545819 97.8384787,26.2616989 98.1907872,26.0777628 C98.3605745,25.9900394 98.5416809,25.9235394 98.7284468,25.8796777 C98.9265319,25.8570394 99.124617,25.8570394 99.3227021,25.8796777 L101.402596,25.8796777 L101.402596,26.686167 L99.4783404,26.686167 C99.3326064,26.659284 99.1840426,26.659284 99.0397234,26.686167 C98.9109681,26.7413479 98.7949468,26.8234117 98.7001489,26.9266989 C98.5982766,27.0229117 98.5162128,27.1375181 98.459617,27.2662734 C98.4341489,27.4021032 98.4341489,27.5407628 98.459617,27.6765926 L101.487489,27.6765926 L101.487489,28.4830819 L98.459617,28.4830819 C98.4383936,28.6090074 98.4383936,28.7377628 98.459617,28.8651032 C98.5091383,28.9896138 98.5812979,29.1056351 98.6718511,29.2046777 C98.7638191,29.3122096 98.8741809,29.4041777 98.9972766,29.4735074 C99.1203723,29.532933 99.2562021,29.5626457 99.3934468,29.5584011 L101.430894,29.5584011 L101.430894,30.3365926 L101.501638,30.3224436 Z M96.1250426,30.3224436 L94.7101489,30.3224436 L92.474617,26.9832947 L92.474617,30.3224436 L91.371,30.3224436 L91.371,25.808933 L92.7858936,25.808933 L94.9789787,29.1905287 L94.9789787,25.808933 L96.0967447,25.808933 L96.0967447,30.3224436 L96.1250426,30.3224436 Z M85.4001489,30.3224436 L82.2024894,30.3224436 C81.6450213,30.3365926 81.117266,30.077667 80.7875957,29.6291457 C80.4451915,29.1834543 80.2655,28.6344755 80.278234,28.0727628 C80.2655,27.4969011 80.4678298,26.9366032 80.8441915,26.5022309 C81.2106489,26.060784 81.7567979,25.8117628 82.3298298,25.8230819 L85.159617,25.8230819 L85.159617,26.6578691 L82.5703617,26.6578691 C82.2392766,26.6522096 81.9294149,26.819167 81.7497234,27.0964862 C81.5544681,27.3837096 81.4554255,27.7246989 81.4667447,28.0727628 C81.4582553,28.4307309 81.5516383,28.7830394 81.7355745,29.0914862 C81.8982872,29.3914436 82.2138085,29.5767947 82.5562128,29.57255 L84.0984468,29.57255 L84.0984468,28.4264862 L82.6269574,28.4264862 L82.6269574,27.6765926 L85.3294043,27.6765926 L85.3294043,30.3365926 L85.4001489,30.3224436 Z M79.3727021,30.3224436 L77.9578085,30.3224436 L75.7222766,26.9832947 L75.7222766,30.3224436 L74.6186596,30.3224436 L74.6186596,25.808933 L76.0335532,25.808933 L78.2266383,29.1905287 L78.2266383,25.808933 L79.3727021,25.808933 L79.3727021,30.3224436 Z M73.5008936,30.3224436 L71.2512128,30.3224436 C70.9031489,30.3238585 70.5593298,30.2474543 70.2466383,30.0960606 C69.8985745,29.9248585 69.6184255,29.6404649 69.4542979,29.2895713 C69.2717766,28.9146245 69.1798085,28.5028904 69.1854681,28.0869117 C69.1812234,27.6794223 69.2731915,27.2775926 69.4542979,26.91255 C69.6255,26.5545819 69.9084787,26.2616989 70.2607872,26.0777628 C70.4305745,25.9900394 70.6116809,25.9235394 70.7984468,25.8796777 C70.995117,25.8570394 71.194617,25.8570394 71.3927021,25.8796777 L73.4725957,25.8796777 L73.4725957,26.686167 L71.5483404,26.686167 C71.4026064,26.659284 71.2540426,26.659284 71.1097234,26.686167 C70.9809681,26.7413479 70.8649468,26.8234117 70.7701489,26.9266989 C70.6682766,27.0229117 70.5862128,27.1375181 70.529617,27.2662734 C70.5041489,27.4021032 70.5041489,27.5407628 70.529617,27.6765926 L73.5574894,27.6765926 L73.5574894,28.4830819 L70.529617,28.4830819 C70.5083936,28.6090074 70.5083936,28.7377628 70.529617,28.8651032 C70.5791383,28.9896138 70.649883,29.1056351 70.7418511,29.2046777 C70.8338191,29.3122096 70.9441809,29.4027628 71.0672766,29.4735074 C71.1903723,29.532933 71.3262021,29.5626457 71.4634468,29.5584011 L73.5008936,29.5584011 L73.5008936,30.3365926 L73.5008936,30.3224436 Z M68.2374894,28.4406351 L65.0539787,28.4406351 L65.0539787,30.3224436 L63.8088723,30.3224436 L63.8088723,27.4926564 C63.813117,27.3002309 63.8456596,27.1092202 63.9079149,26.9266989 C64.0225213,26.5644862 64.2772021,26.2631138 64.6153617,26.0919117 C65.2506489,25.8244968 65.9368723,25.7084755 66.6245106,25.7523372 L68.1242979,25.7523372 L68.1242979,26.4880819 L66.6386596,26.4880819 C66.3471915,26.4555394 66.0528936,26.4555394 65.7614255,26.4880819 C65.4954255,26.5432628 65.2676277,26.7144649 65.1388723,26.9549968 C65.0440745,27.1375181 64.9945532,27.3426777 64.997383,27.5492521 L68.2091915,27.5492521 L68.2091915,28.2991457 L68.2374894,28.4406351 Z M62.6628085,30.3224436 L59.5641915,30.3224436 C59.0067234,30.3394223 58.4775532,30.0804968 58.1492979,29.6291457 C57.8068936,29.1834543 57.6272021,28.6344755 57.6399362,28.0727628 C57.6073936,27.4997309 57.7899149,26.9351883 58.1492979,26.4880819 C58.5171702,26.04805 59.0619043,25.7990287 59.6349362,25.808933 L62.4647234,25.808933 L62.4647234,26.6437202 L59.8754681,26.6437202 C59.544383,26.6380606 59.2345213,26.8036032 59.0548298,27.0823372 C58.8595745,27.3695606 58.7605319,27.71055 58.7718511,28.0586138 C58.7633617,28.4165819 58.8567447,28.7688904 59.0406809,29.0773372 C59.2033936,29.3772947 59.5189149,29.5626457 59.8613191,29.5584011 L61.4177021,29.5584011 L61.4177021,28.4123372 L59.8330213,28.4123372 L59.8330213,27.6624436 L62.5354681,27.6624436 L62.5354681,30.3224436 L62.6628085,30.3224436 Z M56.6353617,30.3224436 L55.2204681,30.3224436 L52.9990851,26.9832947 L52.9990851,30.3224436 L51.8954681,30.3224436 L51.8954681,25.808933 L53.3103617,25.808933 L55.5034468,29.1905287 L55.5034468,25.808933 L56.6212128,25.808933 L56.6212128,30.3224436 L56.6353617,30.3224436 Z M49.4335532,30.3224436 L50.6645106,30.3224436 L50.6645106,25.808933 L49.4335532,25.808933 L49.4335532,30.3224436 Z M47.2404681,28.0586138 C47.254617,27.7034755 47.161234,27.3539968 46.9716383,27.0540394 C46.7254468,26.7116351 46.3165426,26.5234543 45.8963191,26.5588266 C45.5171277,26.5305287 45.1450106,26.6706032 44.8775957,26.9408479 C44.6314043,27.2535394 44.5097234,27.6468798 44.5380213,28.0444649 C44.501234,28.4731777 44.6455532,28.8990606 44.9341915,29.2188266 C45.2270745,29.4720926 45.6105106,29.5951883 45.9953617,29.5584011 C46.3490851,29.5838691 46.6943191,29.4423798 46.9291915,29.1763798 C47.1584043,28.8509543 47.268766,28.454784 47.2404681,28.0586138 Z M48.6553617,30.3365926 L47.3536596,30.3365926 L47.1697234,30.1102096 C46.949,30.1965181 46.7212021,30.2672628 46.4905745,30.3224436 C45.6274894,30.50355 44.727617,30.3252734 44.0003617,29.8272309 C43.5192979,29.3801245 43.264617,28.7420074 43.3070638,28.0869117 C43.2589574,27.4360606 43.4839255,26.7951138 43.929617,26.3182947 C44.4658617,25.8796777 45.1506702,25.6674436 45.8397234,25.7240394 C46.5330213,25.6773479 47.2164149,25.9122202 47.7356809,26.3748904 C48.1092128,26.7484223 48.3143723,27.2606138 48.3016383,27.789784 C48.3299362,28.0996457 48.3299362,28.4123372 48.3016383,28.7236138 C48.2379681,29.0348904 48.1077979,29.3291883 47.919617,29.5866989 L48.7119574,30.3224436 L48.6553617,30.3365926 Z" id="Fill-3" fill="#FFFFFF" mask="url(#mask-2)"></path>
                <path d="M25.4511064,11.4897851 C25.5473191,11.7614447 25.6180638,12.0401787 25.6633404,12.3245723 C26.6594255,11.9849979 27.2607553,10.9705191 27.078234,9.93340213 C26.8858085,9.17643404 27.3428191,8.40531702 28.0997872,8.21289149 C28.1592128,8.19732766 28.2200532,8.18600851 28.2808936,8.17893404 C26.3990851,10.5701043 29.1581277,11.3199979 25.7340851,13.0461681 C25.7340851,14.0365936 25.0549362,15.055317 22.7203617,14.9562745 C22.7203617,14.9562745 22.1544043,15.8052106 23.5692979,15.9042532 C23.5692979,15.9042532 25.2671702,16.2862745 24.0362128,17.6021255 C24.0362128,17.6021255 22.437383,18.7340404 21.8714255,17.3191468 C21.8714255,17.3191468 14.5988723,18.1256362 15.0091915,16.9371255 C15.0091915,16.9371255 12.6604681,14.3054234 9.54770213,17.503083 C9.54770213,17.503083 4.51068085,22.2005298 12.5614255,29.5438277 C12.7170638,29.5438277 15.1789787,32.6848915 22.4656809,32.6141468 C22.4656809,32.6141468 14.9384468,33.2084021 10.8918511,30.0107426 C10.2268511,30.5908489 27.4885532,41.0469128 35.3978085,21.0261681 C36.0062128,20.8422319 32.8792979,36.7597851 15.2214255,34.6091468 C15.2214255,34.6091468 0.732914894,31.4114872 3.36461702,17.9558489 C4.60264894,12.7518702 9.52081915,9.28255106 14.8394043,9.86265745 C15.6458936,9.79191277 12.1228085,9.05616809 11.6275957,5.80191277 C11.6275957,5.80191277 12.7453617,7.83935957 13.778234,8.02329574 C13.1839787,7.51393404 12.4340851,6.33957234 12.8727021,5.63212553 C12.7878085,5.63212553 13.4528085,8.17893404 16.9051489,9.87680638 L18.5039787,9.87680638 C18.9001489,7.8110617 13.4386596,9.28255106 14.443234,5.23595532 C14.443234,5.23595532 14.5564255,7.24510426 15.773234,7.52808298 L16.0562128,6.39616809 L16.5231277,7.89595532 C16.5231277,7.89595532 19.6217447,7.71201915 20.3857872,10.2446787 C20.3857872,10.2446787 21.2347234,13.725317 24.8002553,11.4614872 L25.2247234,11.1785085 C25.4511064,10.6408489 25.4369574,9.76361489 23.3712128,9.76361489 C23.3712128,9.76361489 22.9184468,9.09861489 24.6021702,8.41946596 C25.3534787,8.13224255 26.0085745,7.64268936 26.4981277,7.00457234 C26.4981277,7.00457234 26.3849362,8.41946596 24.2625957,9.12691277 C24.1918511,9.16935957 26.6113191,9.74946596 25.4511064,11.4897851" id="Fill-5" fill="#FFFFFF" mask="url(#mask-2)"></path>
                <path d="M10.6088723,22.4835085 C10.2551489,22.808934 10.0853617,23.3890404 10.3258936,24.3511681 C12.0350851,28.0482851 15.4322447,30.6856468 19.4378085,31.4256362 C21.585617,31.6506043 23.7560638,31.4129021 25.8048298,30.7323383 C43.0665319,22.9221255 33.5584468,-5.30500213 13.5942979,0.878082979 C13.5942979,0.878082979 29.5118511,-1.24425745 31.9030213,10.7823383 C31.8181277,10.3437213 29.4977021,5.33499787 25.748234,3.89180638 C25.748234,3.89180638 36.7419574,15.2109553 28.5780213,24.4219128 C22.9184468,30.3078702 16.4099362,29.473083 13.0141915,22.5684021 C12.4298404,22.0137638 11.5695851,21.8694447 10.8352553,22.2005298 L10.7079149,22.2712745 L10.6088723,22.4835085 Z" id="Fill-6" fill="#FFFFFF" mask="url(#mask-2)"></path>
                <path d="M0.237702128,18.168083 C0.237702128,18.168083 1.65259574,8.87223191 6.64717021,6.84893404 L4.89270213,10.7115936 C3.47780851,13.6828702 7.41121277,3.35414681 18.2492979,5.05201915 C18.6313191,5.17935957 21.8997234,3.39659362 18.9284468,1.81191277 C4.38334043,-0.395321277 -1.27623404,12.5651043 0.237702128,18.168083" id="Fill-7" fill="#FFFFFF" mask="url(#mask-2)"></path>
                <path d="M19.890433,19.2999979 C21.7977096,19.2999979 23.3427734,20.8450617 23.3427734,22.7523383 C23.3427734,24.6596149 21.7977096,26.2046787 19.890433,26.2046787 C17.9831564,26.2046787 16.4380926,24.6596149 16.4380926,22.7523383 C16.4380926,20.8450617 17.9831564,19.2999979 19.890433,19.2999979" id="Fill-8" fill="#FFFFFF" mask="url(#mask-2)"></path>
            </g>
        </g>
    </g>
</svg>